<svg xmlns="http://www.w3.org/2000/svg" xmlns:xlink="http://www.w3.org/1999/xlink" preserveAspectRatio="xMidYMid" width="24" height="25" viewBox="0 0 24 25">
  <defs>
    <style>
      .cls-1 {
        fill: #fff;
        stroke: #000;
        stroke-width: 2px;
        fill-rule: evenodd;
      }
    </style>
  </defs>
  <path d="M11.831,1.004 C10.811,1.004 7.303,1.324 5.649,5.439 C5.265,6.392 5.181,7.576 5.194,8.731 C4.064,8.895 3.116,9.805 2.915,10.975 C2.829,11.474 2.713,13.136 4.672,14.130 C4.279,14.706 3.652,15.379 2.799,15.535 C1.713,15.732 0.939,16.796 1.000,18.007 C1.014,18.297 1.074,18.580 1.177,18.849 C1.623,20.006 2.681,20.556 3.832,20.871 C4.154,21.848 4.963,22.471 5.932,22.471 C6.221,22.471 6.481,22.415 6.689,22.370 C6.895,22.326 7.098,22.282 7.339,22.282 C7.469,22.282 7.610,22.295 7.756,22.322 C7.846,22.354 8.136,22.581 8.347,22.746 C9.157,23.381 10.088,24.000 11.774,24.000 L12.003,24.000 C13.407,24.000 14.657,23.578 15.720,22.746 C15.919,22.590 16.218,22.355 16.331,22.317 C16.456,22.295 16.597,22.282 16.728,22.282 C16.959,22.282 17.146,22.312 17.372,22.361 C17.665,22.425 17.915,22.455 18.155,22.455 C19.110,22.455 19.909,21.838 20.232,20.868 C21.355,20.557 22.385,20.012 22.824,18.873 C22.924,18.625 22.989,18.334 23.006,18.034 C23.065,16.808 22.293,15.746 21.210,15.546 C20.363,15.391 19.753,14.717 19.375,14.140 C20.973,13.340 21.202,12.093 21.191,11.402 C21.171,10.292 20.509,9.318 19.500,8.903 C19.301,8.816 19.089,8.754 18.872,8.720 C18.885,7.568 18.800,6.387 18.417,5.436 C16.761,1.320 13.249,1.000 12.212,1.000 L12.212,1.000 L11.831,1.004 Z" class="cls-1"/>
</svg>
